<svg width="14" height="44" viewBox="0 0 14 44" fill="none" xmlns="http://www.w3.org/2000/svg">
<path d="M13.0745 17.6818C12.5536 18.0007 12.1222 18.4465 11.8205 18.9776C11.5189 19.5087 11.3569 20.1076 11.3497 20.7183C11.3518 21.4057 11.5554 22.0773 11.9354 22.6501C12.3154 23.2228 12.8551 23.6715 13.4876 23.9406C13.2382 24.7452 12.8692 25.5077 12.3928 26.2024C11.7112 27.1836 10.9985 28.1647 9.91413 28.1647C8.82973 28.1647 8.55083 27.5347 7.30113 27.5347C6.08243 27.5347 5.64862 28.1854 4.65712 28.1854C3.66563 28.1854 2.97373 27.2765 2.17843 26.1611C1.12789 24.5985 0.550535 22.766 0.515625 20.8835C0.515625 17.7851 2.52962 16.143 4.51253 16.143C5.56603 16.143 6.44392 16.8349 7.10493 16.8349C7.73493 16.8349 8.71613 16.1016 9.91413 16.1016C10.5301 16.0857 11.1405 16.2215 11.6916 16.4971C12.2428 16.7726 12.7177 17.1795 13.0745 17.6818ZM9.34612 14.79C9.87422 14.1688 10.1732 13.3851 10.193 12.57C10.1939 12.4625 10.1835 12.3553 10.162 12.25C9.25488 12.3386 8.41603 12.771 7.81752 13.4584C7.28433 14.0549 6.97413 14.8176 6.93963 15.6169C6.94003 15.7141 6.95041 15.811 6.97062 15.9061C7.04214 15.9196 7.11474 15.9265 7.18753 15.9268C7.6056 15.8935 8.01254 15.7756 8.38362 15.5802C8.7547 15.3848 9.08217 15.1159 9.34612 14.79Z" fill="black" fill-opacity="0.8"/>
</svg>
