<svg width="15" height="44" viewBox="0 0 15 44" fill="none" xmlns="http://www.w3.org/2000/svg">
<path d="M14.2972 27.2012L10.4272 23.3312C11.1282 22.4022 11.5492 21.2502 11.5492 19.9992C11.5492 16.9392 9.06022 14.4492 5.99922 14.4492C2.93922 14.4492 0.449219 16.9392 0.449219 19.9992C0.449219 23.0602 2.93922 25.5492 5.99922 25.5492C7.25022 25.5492 8.40222 25.1282 9.33122 24.4272L13.2012 28.2972C13.3522 28.4482 13.5512 28.5252 13.7492 28.5252C13.9472 28.5252 14.1452 28.4492 14.2972 28.2972C14.6002 27.9942 14.6002 27.5042 14.2972 27.2012ZM1.54922 19.9992C1.54922 17.5452 3.54622 15.5492 5.99922 15.5492C8.45322 15.5492 10.4492 17.5462 10.4492 19.9992C10.4492 22.4522 8.45322 24.4492 5.99922 24.4492C3.54522 24.4492 1.54922 22.4532 1.54922 19.9992Z" fill="black" fill-opacity="0.8"/>
</svg>
