<svg width="14" height="44" viewBox="0 0 14 44" fill="none" xmlns="http://www.w3.org/2000/svg">
<path d="M11.3548 16.0293H10.3343C10.2248 15.2182 9.8285 14.4733 9.21704 13.9293C8.60558 13.3854 7.81949 13.0786 7.00125 13.0645C6.18301 13.0786 5.39692 13.3854 4.78546 13.9293C4.174 14.4733 3.77765 15.2182 3.66825 16.0293H2.64825C2.08704 16.0296 1.54891 16.2527 1.152 16.6494C0.755086 17.0462 0.531833 17.5842 0.53125 18.1455V25.861C0.531753 26.4221 0.754855 26.9601 1.1516 27.357C1.54834 27.7538 2.08631 27.977 2.64745 27.9777H11.3545C11.9157 27.9772 12.4538 27.754 12.8507 27.3572C13.2476 26.9603 13.4707 26.4222 13.4713 25.861V18.1455C13.4707 17.5843 13.2475 17.0464 12.8507 16.6496C12.4539 16.2529 11.9159 16.0298 11.3548 16.0293ZM7.00125 14.1641C7.52866 14.1755 8.03637 14.3666 8.44043 14.7058C8.8445 15.0449 9.12073 15.5118 9.22345 16.0293H4.77905C4.88177 15.5118 5.158 15.0449 5.56207 14.7058C5.96613 14.3666 6.47384 14.1755 7.00125 14.1641ZM12.3713 25.861C12.371 26.1305 12.2638 26.389 12.0732 26.5797C11.8826 26.7703 11.6242 26.8776 11.3547 26.8781H2.64775C2.37819 26.8776 2.11981 26.7703 1.92926 26.5796C1.73871 26.389 1.63154 26.1305 1.63125 25.861V18.1455C1.63157 17.8759 1.73878 17.6175 1.92936 17.427C2.11994 17.2364 2.37833 17.1292 2.64785 17.1289H11.3548C11.6243 17.1292 11.8827 17.2365 12.0732 17.427C12.2638 17.6176 12.3709 17.876 12.3713 18.1455V25.861Z" fill="black" fill-opacity="0.8"/>
</svg>
